<svg xmlns="http://www.w3.org/2000/svg" width="180" height="44" viewBox="0 0 180 44" fill="none">
  <defs>
    <linearGradient id="g" x1="0" y1="0" x2="180" y2="44" gradientUnits="userSpaceOnUse">
      <stop stop-color="#111827"/>
      <stop offset="1" stop-color="#0F172A"/>
    </linearGradient>
  </defs>
  <g>
    <rect x="2" y="2" width="40" height="40" rx="14" fill="url(#g)"/>
    <path d="M14 27c0-6.2 4.9-11.3 11.4-11.3 3 0 5.5.8 7.6 2.4l-3.1 3.2a7.5 7.5 0 0 0-4.5-1.4c-3.9 0-6.9 2.9-6.9 7.1s3 7.1 6.9 7.1c1.8 0 3.4-.5 4.7-1.5v-2.8h-5.2v-4h9.7v9.1c-2.5 2.2-5.6 3.4-9.2 3.4-6.5 0-11.4-5-11.4-11.3Z" fill="#fff"/>
    <path d="M10 32h24" stroke="#fff" stroke-width="3" stroke-linecap="round" opacity=".25"/>
    <circle cx="14" cy="32" r="2" fill="#fff" opacity=".7"/>
    <circle cx="34" cy="32" r="2" fill="#fff" opacity=".7"/>
  </g>
  <text x="54" y="28" font-family="ui-sans-serif, system-ui, -apple-system, Segoe UI, Roboto" font-size="20" font-weight="700" fill="#111827">GolRide</text>
</svg>
